<?xml version="1.0" encoding="UTF-8" standalone="no"?>
<!-- Created with Inkscape (http://www.inkscape.org/) -->

<svg
   width="166.6875mm"
   height="166.6875mm"
   viewBox="0 0 166.6875 166.6875"
   version="1.1"
   id="svg1"
   xml:space="preserve"
   xmlns:xlink="http://www.w3.org/1999/xlink"
   xmlns="http://www.w3.org/2000/svg"
   xmlns:svg="http://www.w3.org/2000/svg"><defs
     id="defs1"><linearGradient
       id="linearGradient145"><stop
         style="stop-color:#565e73;stop-opacity:1;"
         offset="0"
         id="stop145" /><stop
         style="stop-color:#bfd9fe;stop-opacity:1;"
         offset="1"
         id="stop146" /></linearGradient><linearGradient
       id="linearGradient115"><stop
         style="stop-color:#8d4402;stop-opacity:1;"
         offset="0"
         id="stop115" /><stop
         style="stop-color:#f8d14d;stop-opacity:1;"
         offset="0.5859496"
         id="stop117" /><stop
         style="stop-color:#e69c09;stop-opacity:1;"
         offset="1"
         id="stop116" /></linearGradient><linearGradient
       id="linearGradient107"><stop
         style="stop-color:#fcd968;stop-opacity:1;"
         offset="0"
         id="stop107" /><stop
         style="stop-color:#fcf1bb;stop-opacity:1;"
         offset="1"
         id="stop108" /></linearGradient><linearGradient
       id="linearGradient96"><stop
         style="stop-color:#812b01;stop-opacity:1;"
         offset="0.36897275"
         id="stop96" /><stop
         style="stop-color:#d36b21;stop-opacity:1;"
         offset="1"
         id="stop97" /></linearGradient><linearGradient
       id="linearGradient88"><stop
         style="stop-color:#812b01;stop-opacity:1;"
         offset="0"
         id="stop88" /><stop
         style="stop-color:#d36b21;stop-opacity:1;"
         offset="1"
         id="stop89" /></linearGradient><linearGradient
       id="linearGradient86"><stop
         style="stop-color:#49180a;stop-opacity:1;"
         offset="0"
         id="stop86" /><stop
         style="stop-color:#a94a10;stop-opacity:1;"
         offset="1"
         id="stop87" /></linearGradient><linearGradient
       id="linearGradient64"><stop
         style="stop-color:#49180a;stop-opacity:1;"
         offset="0"
         id="stop65" /><stop
         style="stop-color:#c04820;stop-opacity:1;"
         offset="1"
         id="stop66" /></linearGradient><linearGradient
       id="linearGradient62"><stop
         style="stop-color:#b15e00;stop-opacity:1;"
         offset="0"
         id="stop63" /><stop
         style="stop-color:#fbd550;stop-opacity:1;"
         offset="1"
         id="stop64" /></linearGradient><linearGradient
       id="linearGradient61"><stop
         style="stop-color:#bf7302;stop-opacity:1;"
         offset="0"
         id="stop61" /><stop
         style="stop-color:#fce38d;stop-opacity:1;"
         offset="1"
         id="stop62" /></linearGradient><linearGradient
       id="linearGradient30"><stop
         style="stop-color:#d66d22;stop-opacity:1;"
         offset="0"
         id="stop31" /><stop
         style="stop-color:#812b01;stop-opacity:1;"
         offset="1"
         id="stop32" /></linearGradient><linearGradient
       xlink:href="#linearGradient145"
       id="linearGradient425"
       gradientUnits="userSpaceOnUse"
       gradientTransform="translate(13.977047,-856.37415)"
       x1="21.65625"
       y1="148.5"
       x2="188.34375"
       y2="148.5" /><linearGradient
       xlink:href="#linearGradient96"
       id="linearGradient426"
       gradientUnits="userSpaceOnUse"
       x1="109.41196"
       y1="222.00668"
       x2="124.86334"
       y2="221.7421" /><linearGradient
       xlink:href="#linearGradient86"
       id="linearGradient427"
       gradientUnits="userSpaceOnUse"
       x1="110.1419"
       y1="207.32709"
       x2="135.68767"
       y2="207.0625" /><linearGradient
       xlink:href="#linearGradient88"
       id="linearGradient428"
       gradientUnits="userSpaceOnUse"
       x1="102.25259"
       y1="143.28139"
       x2="119.74493"
       y2="141.41051" /><radialGradient
       xlink:href="#linearGradient30"
       id="radialGradient428"
       gradientUnits="userSpaceOnUse"
       gradientTransform="matrix(1.5588301,0,0,1.4234305,-48.982592,-34.336265)"
       cx="87.652023"
       cy="92.018158"
       fx="87.652023"
       fy="92.018158"
       r="61.600677" /><linearGradient
       xlink:href="#linearGradient64"
       id="linearGradient429"
       gradientUnits="userSpaceOnUse"
       x1="39.496029"
       y1="150.90802"
       x2="45.045216"
       y2="150.9855" /><linearGradient
       xlink:href="#linearGradient62"
       id="linearGradient430"
       gradientUnits="userSpaceOnUse"
       x1="38.74506"
       y1="191.27754"
       x2="45.939415"
       y2="191.40984" /><linearGradient
       xlink:href="#linearGradient61"
       id="linearGradient431"
       gradientUnits="userSpaceOnUse"
       x1="41.403767"
       y1="110.38668"
       x2="47.323349"
       y2="110.25439" /><linearGradient
       xlink:href="#linearGradient107"
       id="linearGradient432"
       gradientUnits="userSpaceOnUse"
       x1="113.30718"
       y1="123.148"
       x2="113.2469"
       y2="119.70271" /><linearGradient
       xlink:href="#linearGradient115"
       id="linearGradient433"
       gradientUnits="userSpaceOnUse"
       gradientTransform="translate(671.9833,390.81122)"
       x1="-607.01044"
       y1="-165.3457"
       x2="-606.99066"
       y2="-185.32175" /></defs><g
     id="g408"
     transform="translate(-35.633298,791.21795)"><rect
       style="display:inline;fill:url(#linearGradient425);fill-opacity:1;stroke:none;stroke-width:0;stroke-dasharray:none;stroke-opacity:1"
       id="rect120-67"
       width="166.6875"
       height="166.6875"
       x="35.633297"
       y="-791.2179" /><g
       id="g117-0"
       transform="matrix(0.85695166,0,0,0.85695166,31.657432,-842.91495)"><g
         id="g459"><g
           id="g108-3"
           transform="translate(3.30054,-9.98254)"><g
             id="g97-0"><path
               d="m 170.8367,207.29562 c -1.3883,0.92809 -3.2088,1.58267 -5.5934,1.7446 -38.1154,-0.1257 -115.7294,-0.13384 -115.7294,-0.13384 0,0 -1.955,0.12051 -3.0603,-1.60197 0.1877,1.35897 -1.9988,2.53731 -1.9988,2.53731 -8.0074,1.3891 -12.2008,8.07246 -12.2928,14.13506 -0.092,6.0626 7.4404,7.57783 7.4404,7.57783 0,0 115.9876,0.11121 120.989,0.17621 5.0013,0.065 10.0673,-2.59806 8.8981,-6.94996 -0.9764,-3.63473 0.7514,-14.12639 1.3472,-17.48524 z"
               style="display:inline;opacity:1;fill:#f4cf8d;fill-opacity:1;stroke:#000000;stroke-width:0;stroke-dasharray:none"
               id="path22-0-63-90" /><path
               d="m 173.6531,204.24826 c -0.6477,1.13237 -1.5533,2.20299 -2.8164,3.04736 -0.5958,3.35885 -2.3236,13.85051 -1.3472,17.48524 1.1692,4.3519 -3.8968,7.01496 -8.8981,6.94996 -5.0014,-0.065 -120.989,-0.17621 -120.989,-0.17621 0,0 -7.5322,-1.51523 -7.4404,-7.57783 0.092,-6.0626 4.2854,-12.74596 12.2928,-14.13506 0,0 2.1865,-1.17834 1.9988,-2.53731 -0.1416,-0.22065 -0.2694,-0.47181 -0.3772,-0.75706 -0.8373,-0.87925 -2.8123,-0.98944 -4.0628,-0.75861 -1.4927,0.2756 -10.5167,2.33177 -14.349,8.95707 -3.8322,6.6252 -3.3454,13.60735 -0.1302,17.79685 3.2152,4.1895 10.1331,7.66457 15.784,7.85947 5.651,0.1948 119.3514,-0.4222 119.3514,-0.4222 0,0 8.6065,-0.19466 10.5875,-3.31246 1.9811,-3.1177 2.7306,-6.39879 2.6158,-9.56789 -0.1148,-3.1691 -1.8603,-23.1252 -1.8603,-23.1252 z"
               style="display:inline;opacity:1;fill:#49180a;fill-opacity:1;stroke:#000000;stroke-width:0;stroke-dasharray:none"
               id="path23-0-4-2" /><path
               d="m 40.7381,201.69196 c -0.5333,0.0158 -1.1116,0.0944 -1.7368,0.2527 -5.0014,1.2666 -14.7633,6.58082 -17.2434,15.12362 -2.4802,8.5427 5.6029,21.77025 15.4316,24.06675 9.8288,2.2964 125.9377,0.56069 125.9377,0.56069 0,0 6.1997,-0.4167 8.5674,-3.58324 -3.1766,1.76369 -8.9576,1.89446 -8.9576,1.89446 0,0 -113.7005,0.61699 -119.3515,0.42219 -5.6509,-0.1949 -12.5688,-3.66997 -15.784,-7.85947 -3.2152,-4.1895 -3.702,-11.17164 0.1302,-17.79684 3.8323,-6.6253 12.8563,-8.68148 14.349,-8.95708 1.3982,-0.25807 3.702,-0.0893 4.3088,1.10329 l -0.3876,-2.38641 c 0,0 -1.5306,-2.95139 -5.2638,-2.84066 z"
               style="opacity:1;fill:url(#linearGradient426);fill-opacity:1;stroke:#000000;stroke-width:0;stroke-dasharray:none"
               id="path24-6-42-1" /><path
               d="m 175.12319,195.81925 c -0.44577,3.32296 -2.35021,8.55736 -9.87744,9.05113 -38.1194,-0.12144 -115.74125,-0.12919 -115.74125,-0.12919 0,0 -3.3163,0.19701 -3.7527,-3.5972 -0.029,1.80366 -0.041,3.01169 -0.034,3.50108 0.1785,4.48875 3.7925,4.26641 3.7925,4.26641 0,0 77.61397,0.008 115.72937,0.13384 11.1064,-0.75423 9.97045,-12.19305 9.97045,-12.19305 0,0 -0.0303,-0.35853 -0.0873,-1.03302 z"
               style="opacity:1;fill:url(#linearGradient427);stroke:#000000;stroke-width:0;stroke-dasharray:none"
               id="path14-07-9-6" /><path
               d="m 175.12319,195.81925 c -0.81414,-9.6303 -7.07972,-83.75312 -8.49509,-100.78713 -2.6178,-9.73059 -11.6427,-8.57932 -11.6427,-8.57932 0,0 -97.3757,-0.22586 -102.418,-0.27026 -4.4622,0.0444 -4.1977,3.44423 -4.1977,3.44423 0,0 -2.3023,91.70016 -2.6179,111.51722 0.4364,3.79421 3.7527,3.5972 3.7527,3.5972 0,0 77.62185,0.008 115.74125,0.12919 7.52723,-0.49377 9.43167,-5.72817 9.87744,-9.05113 z M 55.3935,89.03818 c 4.796,0.0407 97.4158,0.24753 97.4158,0.24753 0,0 8.58385,-1.05404 11.07375,7.85585 1.4406,16.68972 8.16332,93.23203 8.16332,93.23203 0,0 1.08034,10.47409 -9.48366,11.1647 -36.25371,-0.1151 -110.07651,-0.12248 -110.07651,-0.12248 0,0 -3.4382,0.20341 -3.608,-3.90674 -0.085,-5.37168 2.5223,-105.31708 2.5223,-105.31708 0,0 -0.2513,-3.11311 3.993,-3.15381 z"
               style="opacity:1;fill:url(#linearGradient428);stroke:#000000;stroke-width:0;stroke-dasharray:none"
               id="path15-3-28-2" /><path
               d="m 55.3935,89.03818 c -4.2443,0.0407 -3.993,3.15381 -3.993,3.15381 0,0 -2.6073,99.9454 -2.5223,105.31708 0.1698,4.11015 3.608,3.90674 3.608,3.90674 0,0 73.8228,0.007 110.07651,0.12248 10.564,-0.69061 9.48366,-11.1647 9.48366,-11.1647 0,0 -6.72272,-76.54231 -8.16332,-93.23203 -2.4899,-8.90989 -11.07375,-7.85585 -11.07375,-7.85585 0,0 -92.6198,-0.20683 -97.4158,-0.24753 z"
               style="opacity:1;fill:url(#radialGradient428);stroke:#000000;stroke-width:0;stroke-dasharray:none"
               id="path16-3-92-09" /><path
               d="m 45.71186,204.33221 c 0.091,-12.19064 2.651,-114.67613 2.651,-114.67613 0,0 -0.091,-1.17003 0.7286,-2.14989 -0.9486,-0.70305 -3.0278,-1.34764 -7.5701,-0.56045 -7.9916,1.38496 -13.4111,6.92471 -13.503,14.68045 -0.076,6.43682 -3.7592,86.01077 -5.0095,112.88879 3.6362,-6.70459 11.5714,-10.87942 15.9153,-11.98517 3.2255,-0.82105 5.5464,0.65246 6.7877,1.8024 z"
               style="opacity:1;fill:url(#linearGradient429);fill-opacity:1;stroke:#000000;stroke-width:0;stroke-dasharray:none"
               id="path17-2-5-48" /><path
               d="m 45.9162,192.76748 c 0.077,-3.75506 0.1754,-8.25598 0.2878,-13.24932 -4.3656,0.0684 -18.406,1.37131 -23.3061,14.99133 -0.3215,8.35904 -0.6893,14.83527 -0.6893,14.83527 0,0 0.2288,1.91038 0.9512,1.89414 0.01,-0.90122 0.082,-2.18599 0.082,-2.18599 0,0 3.9409,-15.91919 22.6742,-16.28543 z"
               style="opacity:1;fill:url(#linearGradient430);stroke:#000000;stroke-width:0;stroke-dasharray:none"
               id="path20-4-6-67" /><path
               d="m 47.8504,110.64071 c 0.099,-4.02763 0.19,-7.66188 0.2667,-10.74921 -8e-4,-10e-6 0,0 0,0 -3.2313,-0.0127 -16.4366,0.65571 -20.9238,12.16773 -0.2827,6.78329 -0.6062,12.03906 -0.6062,12.03906 0,0 0.026,1.55933 0.6615,1.54616 0.01,-0.73134 0.021,-1.72651 0.021,-1.72651 0,0 3.7536,-13.1966 20.5832,-13.27723 z"
               style="display:inline;opacity:1;fill:url(#linearGradient431);fill-opacity:1;stroke:#000000;stroke-width:0;stroke-dasharray:none"
               id="path19-0-7-909" /></g><path
             style="font-weight:bold;font-size:35.9305px;line-height:0.9;font-family:Athelas;-inkscape-font-specification:'Athelas Bold';fill:url(#linearGradient432);stroke:#000000;stroke-width:0"
             d="m 82.926553,124.5448 q 1.509081,0.14372 2.766648,0.61082 1.293498,0.43116 2.227691,1.1857 0.934193,0.71861 1.43722,1.72467 0.538958,1.00605 0.538958,2.22769 0,1.6528 -0.646749,2.91037 -0.610819,1.25756 -1.760595,2.1199 -1.113845,0.8264 -2.730718,1.25756 -1.616872,0.43117 -3.59305,0.43117 h -6.215976 q -0.646749,0 -1.473151,0 -0.790471,0.0359 -1.509081,0.10779 -0.431166,0.0359 -0.862332,0.0359 -0.431166,0.0359 -0.826401,0.0359 l -0.03593,-0.25151 q -0.03593,-0.10779 -0.03593,-0.17965 0,-0.10779 0,-0.17966 0,-0.39523 0.107791,-0.50302 0.143722,-0.14372 0.323375,-0.17966 1.257567,-0.17965 1.760594,-0.50302 0.538958,-0.32338 0.538958,-1.04199 v -18.00118 q 0,-0.71861 -0.467097,-1.00605 -0.467096,-0.32338 -1.832455,-0.53896 -0.287444,-0.0719 -0.359305,-0.25151 -0.07186,-0.21559 -0.07186,-0.50303 0,-0.0719 0,-0.14372 0,-0.10779 0.03593,-0.17965 0,-0.14373 0.03593,-0.25152 1.077915,0.0719 2.407343,0.14372 1.365359,0.0359 2.227691,0.0359 h 4.958409 q 2.299552,0 3.808633,0.46709 1.509081,0.43117 2.407344,1.22164 0.898262,0.79047 1.257567,1.83245 0.395236,1.00606 0.395236,2.1199 0,2.08397 -1.365359,3.34154 -1.365359,1.22164 -3.449328,1.79653 z m -5.461436,9.44972 q 0,0.8264 0.75454,1.07791 0.790471,0.21559 1.796525,0.21559 2.479205,0 3.700842,-1.04199 1.221637,-1.07791 1.221637,-3.44933 0,-1.29349 -0.467097,-2.26362 -0.431166,-0.97012 -1.185706,-1.58094 -0.754541,-0.64675 -1.760595,-0.97012 -1.006054,-0.32338 -2.119899,-0.32338 h -1.940247 z m 0.574888,-10.1324 q 1.401289,0 2.335482,-0.35931 0.934193,-0.3593 1.473151,-0.97012 0.574888,-0.64675 0.790471,-1.43722 0.251513,-0.79047 0.251513,-1.6528 0,-0.82641 -0.287444,-1.54502 -0.251513,-0.75454 -0.826401,-1.29349 -0.574888,-0.53896 -1.509081,-0.82641 -0.934193,-0.32337 -2.227691,-0.32337 h -0.574888 v 8.40774 z m 21.486439,10.4917 q 0,0.35931 0.03593,0.61082 0.07186,0.21558 0.287444,0.39524 0.251512,0.17965 0.682682,0.32337 0.46709,0.10779 1.22164,0.21558 0.3593,0.0719 0.3593,0.61082 0,0.10779 -0.0359,0.32338 0,0.21558 -0.0359,0.3593 -1.14978,-0.0719 -2.479206,-0.14372 -1.293498,-0.0359 -2.299552,-0.0359 -1.041985,0 -2.335483,0.0359 -1.293498,0.0719 -2.443274,0.14372 -0.07186,-0.14372 -0.07186,-0.3593 0,-0.21559 0,-0.32338 0,-0.57488 0.359305,-0.61082 0.754541,-0.10779 1.185707,-0.21558 0.467096,-0.14372 0.682679,-0.32337 0.215583,-0.17966 0.287444,-0.39524 0.07186,-0.25151 0.07186,-0.61082 v -18.00118 q 0,-0.3593 -0.07186,-0.57489 -0.07186,-0.25151 -0.287444,-0.43116 -0.215583,-0.17965 -0.682679,-0.28745 -0.431166,-0.14372 -1.185707,-0.25151 -0.359305,-0.10779 -0.359305,-0.61082 0,-0.10779 0,-0.32337 0,-0.21558 0.07186,-0.39524 1.149776,0.0719 2.443274,0.14372 1.293498,0.0359 2.335483,0.0359 1.006054,0 2.299552,-0.0359 1.329426,-0.0719 2.479206,-0.14372 0.0359,0.17966 0.0359,0.39524 0.0359,0.21558 0.0359,0.32337 0,0.50303 -0.3593,0.61082 -0.75455,0.10779 -1.22164,0.25151 -0.43117,0.1078 -0.682682,0.28745 -0.215583,0.17965 -0.287444,0.43116 -0.03593,0.21559 -0.03593,0.57489 z m 18.180846,-9.80902 q 1.50908,0.14372 2.76665,0.61082 1.2935,0.43116 2.22769,1.1857 0.93419,0.71861 1.43722,1.72467 0.53896,1.00605 0.53896,2.22769 0,1.6528 -0.64675,2.91037 -0.61082,1.25756 -1.7606,2.1199 -1.11384,0.8264 -2.73071,1.25756 -1.61688,0.43117 -3.59305,0.43117 h -6.21598 q -0.64675,0 -1.47315,0 -0.79047,0.0359 -1.50908,0.10779 -0.43117,0.0359 -0.86233,0.0359 -0.43117,0.0359 -0.8264,0.0359 l -0.0359,-0.25151 q -0.0359,-0.10779 -0.0359,-0.17965 0,-0.10779 0,-0.17966 0,-0.39523 0.1078,-0.50302 0.14372,-0.14372 0.32337,-0.17966 1.25757,-0.17965 1.76059,-0.50302 0.53896,-0.32338 0.53896,-1.04199 v -18.00118 q 0,-0.71861 -0.46709,-1.00605 -0.4671,-0.32338 -1.83246,-0.53896 -0.28744,-0.0719 -0.3593,-0.25151 -0.0719,-0.21559 -0.0719,-0.50303 0,-0.0719 0,-0.14372 0,-0.10779 0.0359,-0.17965 0,-0.14373 0.0359,-0.25152 1.07791,0.0719 2.40734,0.14372 1.36536,0.0359 2.22769,0.0359 h 4.95841 q 2.29955,0 3.80863,0.46709 1.50908,0.43117 2.40735,1.22164 0.89826,0.79047 1.25756,1.83245 0.39524,1.00606 0.39524,2.1199 0,2.08397 -1.36536,3.34154 -1.36536,1.22164 -3.44933,1.79653 z m -5.46143,9.44972 q 0,0.8264 0.75454,1.07791 0.79047,0.21559 1.79652,0.21559 2.47921,0 3.70084,-1.04199 1.22164,-1.07791 1.22164,-3.44933 0,-1.29349 -0.4671,-2.26362 -0.43116,-0.97012 -1.1857,-1.58094 -0.75454,-0.64675 -1.7606,-0.97012 -1.00605,-0.32338 -2.1199,-0.32338 h -1.94024 z m 0.57488,-10.1324 q 1.40129,0 2.33549,-0.35931 0.93419,-0.3593 1.47315,-0.97012 0.57488,-0.64675 0.79047,-1.43722 0.25151,-0.79047 0.25151,-1.6528 0,-0.82641 -0.28744,-1.54502 -0.25152,-0.75454 -0.8264,-1.29349 -0.57489,-0.53896 -1.50909,-0.82641 -0.93419,-0.32337 -2.22769,-0.32337 h -0.57488 v 8.40774 z m 21.80982,10.09647 q 0,0.75454 0.97012,1.00605 0.97012,0.25152 3.19781,0.25152 h 1.36536 q 0.89827,0 1.54501,-0.17966 0.68268,-0.21558 1.18571,-0.68268 0.50303,-0.46709 0.89826,-1.1857 0.43117,-0.75454 0.8264,-1.79653 0.1078,-0.28744 0.53896,-0.28744 0.17965,0 0.43117,0.10779 0.25151,0.10779 0.50303,0.21558 -0.28745,1.14978 -0.53896,2.51514 -0.21559,1.32943 -0.39524,2.62292 -0.0359,0.43117 -0.25151,0.53896 -0.17965,0.10779 -0.39524,0.10779 -0.28744,0 -0.8264,-0.0359 -0.50303,-0.0359 -1.11384,-0.0719 -0.61082,0 -1.25757,-0.0359 -0.61082,-0.0359 -1.07792,-0.0359 h -8.15622 q -1.04198,0 -2.40734,0.0359 -1.32943,0.0719 -2.40735,0.14372 -0.0719,-0.14372 -0.0719,-0.3593 0,-0.25152 0,-0.35931 0,-0.53895 0.35931,-0.57489 1.36536,-0.25151 1.94024,-0.53895 0.61082,-0.28745 0.61082,-1.00606 v -18.00118 q 0,-0.3593 -0.0719,-0.57489 -0.0719,-0.25151 -0.28744,-0.43116 -0.21559,-0.17965 -0.68268,-0.28745 -0.43117,-0.14372 -1.18571,-0.25151 -0.3593,-0.10779 -0.3593,-0.61082 0,-0.10779 0,-0.32337 0,-0.21558 0.0719,-0.39524 1.14977,0.0719 2.44327,0.14372 1.2935,0.0359 2.29955,0.0359 0.50303,0 1.14978,0 0.64675,-0.0359 1.32943,-0.0359 0.71861,-0.0359 1.40129,-0.0719 0.71861,-0.0359 1.2935,-0.0719 0.0359,0.17966 0.0359,0.39524 0.0359,0.21558 0.0359,0.32337 0,0.50303 -0.35931,0.61082 -1.54501,0.21558 -2.08397,0.57489 -0.50302,0.32337 -0.50302,1.04198 z m 20.48037,-18.50421 v 8.65925 h 5.0662 q 0.68268,0 0.9342,-0.53896 0.25151,-0.57488 0.43116,-1.83245 0.0359,-0.28745 0.21559,-0.35931 0.17965,-0.10779 0.46709,-0.10779 0.10779,0 0.32338,0.0359 0.25151,0 0.3593,0.0359 -0.0719,0.8264 -0.14372,1.94025 -0.0359,1.07791 -0.0359,1.83245 0,0.64675 0.0359,1.54502 0.0359,0.86233 0.14372,1.97617 -0.10779,0.0719 -0.3593,0.1078 -0.21559,0 -0.32338,0 -0.64675,0 -0.68268,-0.50303 -0.21558,-1.36536 -0.50302,-1.83246 -0.25152,-0.50302 -0.86234,-0.50302 h -5.0662 v 8.04843 q 0,0.75454 0.9342,1.00605 0.93419,0.25152 3.16188,0.25152 h 1.50908 q 1.07792,0 1.79653,-0.28745 0.75454,-0.28744 1.32942,-0.79047 0.57489,-0.53896 1.00606,-1.22164 0.43116,-0.71861 0.86233,-1.58094 0.10779,-0.25151 0.50303,-0.25151 0.17965,0 0.43116,0.10779 0.25152,0.10779 0.50303,0.21558 -0.0719,0.28745 -0.17965,0.53896 -0.0719,0.25151 -0.14372,0.50303 -0.17966,0.39523 -0.28745,0.86233 -0.10779,0.4671 -0.21558,0.75454 -0.0719,0.3593 -0.17965,0.8264 -0.0719,0.43117 -0.17966,0.86233 -0.0719,0.39524 -0.17965,0.71861 -0.0719,0.32338 -0.10779,0.43117 -0.14372,0.28744 -0.57489,0.28744 -0.28744,0 -0.8264,-0.0359 -0.53896,-0.0359 -1.18571,-0.0719 -0.61081,0 -1.25756,-0.0359 -0.64675,-0.0359 -1.11385,-0.0359 h -8.15622 q -1.04199,0 -2.40735,0.0359 -1.32942,0.0719 -2.40734,0.14372 -0.0719,-0.14372 -0.0719,-0.3593 0,-0.25152 0,-0.35931 0,-0.53895 0.3593,-0.57489 1.36536,-0.25151 1.94025,-0.53895 0.61082,-0.28745 0.61082,-1.00606 V 116.3526 q 0,-0.3593 -0.10779,-0.57489 -0.10779,-0.25151 -0.43117,-0.39523 -0.28744,-0.17965 -0.79047,-0.28744 -0.4671,-0.14373 -1.22164,-0.28745 -0.3593,-0.10779 -0.3593,-0.64675 0,-0.17965 0,-0.32337 0,-0.17965 0.0719,-0.35931 1.54501,0.10779 2.73072,0.14372 1.1857,0.0359 2.04804,0.0359 h 7.36575 q 1.61687,0 2.76665,-0.1078 1.1857,-0.10779 1.61687,-0.10779 0.39524,0 0.57489,0.32338 0.10779,0.28744 0.17965,1.07791 0.0719,0.75454 0.25151,1.58094 0.1078,0.61082 0.25152,1.18571 0.14372,0.57489 0.43116,1.40129 -0.17965,0.0719 -0.39523,0.14372 -0.21558,0.0719 -0.43117,0.0719 -0.39523,0 -0.57489,-0.32337 -0.43116,-0.93419 -0.86233,-1.58094 -0.39523,-0.68268 -0.93419,-1.07792 -0.50303,-0.43116 -1.22164,-0.61082 -0.68268,-0.17965 -1.6528,-0.17965 z"
             id="text101-83"
             transform="scale(0.90939812,1.0996284)"
             aria-label="BIBLE" /></g><path
           style="opacity:1;fill:url(#linearGradient433);stroke:#000000;stroke-width:0;stroke-dasharray:none;stroke-opacity:1"
           d="m 55.699165,205.0089 18.241137,-0.18709 0.8419,33.95659 -9.915697,-6.73519 -10.47696,6.92228 z"
           id="path114-8" /></g></g></g></svg>
