<?xml version="1.0" encoding="UTF-8" standalone="no"?>
<!-- Created with Inkscape (http://www.inkscape.org/) -->

<svg
   width="1239.7225mm"
   height="2645.9878mm"
   viewBox="0 0 1239.7225 2645.9878"
   version="1.1"
   id="svg1"
   xml:space="preserve"
   xmlns:xlink="http://www.w3.org/1999/xlink"
   xmlns="http://www.w3.org/2000/svg"
   xmlns:svg="http://www.w3.org/2000/svg"><defs
     id="defs1"><linearGradient
       id="linearGradient10"><stop
         style="stop-color:#c9dae6;stop-opacity:1;"
         offset="0"
         id="stop10" /><stop
         style="stop-color:#96aec3;stop-opacity:1;"
         offset="1"
         id="stop11" /></linearGradient><linearGradient
       id="swatch52"><stop
         style="stop-color:#ffffff;stop-opacity:1;"
         offset="0"
         id="stop52" /></linearGradient><linearGradient
       id="linearGradient90"><stop
         style="stop-color:#58a4dd;stop-opacity:1;"
         offset="0"
         id="stop90" /><stop
         style="stop-color:#1b376a;stop-opacity:1;"
         offset="1"
         id="stop91" /></linearGradient><linearGradient
       id="phoneGrad"
       x1="44.158806"
       y1="13.587324"
       x2="397.42923"
       y2="366.85776"
       gradientTransform="scale(0.67936622,1.4719601)"
       gradientUnits="userSpaceOnUse"><stop
         offset="0%"
         style="stop-color:#1a1a1a"
         id="stop1" /><stop
         offset="100%"
         style="stop-color:#2d2d2d"
         id="stop2" /></linearGradient><filter
       id="phoneShadow"
       x="-0.08"
       y="-0.036923077"
       width="1.16"
       height="1.0930769"><feGaussianBlur
         in="SourceAlpha"
         stdDeviation="8"
         id="feGaussianBlur2" /><feOffset
         dx="0"
         dy="10"
         id="feOffset2" /><feComponentTransfer
         id="feComponentTransfer2"><feFuncA
           type="linear"
           slope="0.3"
           id="feFuncA2" /></feComponentTransfer><feMerge
         id="feMerge3"><feMergeNode
           id="feMergeNode2" /><feMergeNode
           in="SourceGraphic"
           id="feMergeNode3" /></feMerge></filter><linearGradient
       xlink:href="#linearGradient90"
       id="linearGradient4"
       gradientUnits="userSpaceOnUse"
       x1="1249.0703"
       y1="-763.20782"
       x2="1499.9135"
       y2="-763.20782" /><linearGradient
       xlink:href="#linearGradient10"
       id="linearGradient13"
       x1="60"
       y1="107.5"
       x2="95"
       y2="107.5"
       gradientUnits="userSpaceOnUse" /></defs><g
     id="layer1"
     style="display:inline"
     transform="translate(4526.9347,1183.6392)"><g
       style="fill:none"
       id="g1"
       transform="matrix(4.4530257,0,0,4.4530257,-4575.027,-1187.2016)"><ellipse
         cx="150"
         cy="580"
         rx="100"
         ry="15"
         fill="#000000"
         opacity="0.2"
         id="ellipse3" /><g
         filter="url(#phoneShadow)"
         id="g4-3"><rect
           x="30"
           y="20"
           width="240"
           height="520"
           rx="40"
           fill="url(#phoneGrad)"
           id="rect3-7"
           style="fill:url(#phoneGrad)" /><rect
           x="35"
           y="25"
           width="230"
           height="510"
           rx="37"
           fill="#000000"
           id="rect4-8" /></g><rect
         x="45"
         y="35"
         width="210"
         height="470"
         rx="30"
         fill="#f5f5f7"
         id="rect5" /><rect
         x="110"
         y="45"
         width="80"
         height="28"
         rx="14"
         fill="#000000"
         id="rect6-4" /><g
         opacity="0.6"
         id="g14-6"><!-- Barra de estado --><text
           x="60"
           y="60"
           font-family="Arial"
           font-size="10px"
           fill="#000000"
           id="text6">9:41</text><text
           x="220"
           y="60"
           font-family="Arial"
           font-size="10px"
           fill="#000000"
           text-anchor="end"
           id="text7">100%</text><!-- Iconos de apps simulados --><rect
           x="60"
           y="90"
           width="35"
           height="35"
           rx="8"
           fill="#0078d4"
           id="rect7"
           style="fill:url(#linearGradient13)" /><rect
           x="105"
           y="90"
           width="35"
           height="35"
           rx="8"
           fill="#7b2ff7"
           id="rect8" /><rect
           x="150"
           y="90"
           width="35"
           height="35"
           rx="8"
           fill="#00d4ff"
           id="rect9" /><rect
           x="195"
           y="90"
           width="35"
           height="35"
           rx="8"
           fill="#f093fb"
           id="rect10"
           style="stroke-width:0.999994;stroke-dasharray:none" /><rect
           x="60"
           y="135"
           width="35"
           height="35"
           rx="8"
           fill="#ff6b6b"
           id="rect11" /><rect
           x="105"
           y="135"
           width="35"
           height="35"
           rx="8"
           fill="#4facfe"
           id="rect12" /><rect
           x="150"
           y="135"
           width="35"
           height="35"
           rx="8"
           fill="#feca57"
           id="rect13-8" /><rect
           x="195"
           y="135"
           width="35"
           height="35"
           rx="8"
           fill="#00e676"
           id="rect14-2" /></g><rect
         x="25"
         y="120"
         width="5"
         height="40"
         rx="2.5"
         fill="#1a1a1a"
         id="rect15-3" /><rect
         x="25"
         y="180"
         width="5"
         height="60"
         rx="2.5"
         fill="#1a1a1a"
         id="rect16-0" /><rect
         x="25"
         y="250"
         width="5"
         height="60"
         rx="2.5"
         fill="#1a1a1a"
         id="rect17" /><rect
         x="270"
         y="180"
         width="5"
         height="80"
         rx="2.5"
         fill="#1a1a1a"
         id="rect18" /><rect
         x="35"
         y="25"
         width="230"
         height="510"
         rx="37"
         fill="none"
         stroke="rgba(255,255,255,0.1)"
         stroke-width="1"
         id="rect19" /></g><g
       id="g108-94"
       transform="matrix(0.57658276,0,0,0.57658276,-5094.0729,-296.90104)"
       style="display:inline"><g
         id="g93-5"
         transform="matrix(0.99769881,0,0,0.99769881,125.97989,47.035867)"><circle
           style="fill:#ffffff;stroke-width:0.376512"
           id="path35-0-9-1-4-2-9-5-0"
           cx="1276.0402"
           cy="-701.4585"
           r="19.755957" /><circle
           style="fill:#00aa00;stroke-width:0.214593"
           id="path36-0-5-0-9-1-1-7-70"
           cx="1276.0402"
           cy="-701.4585"
           r="14.740196" /><rect
           style="fill:#ffffff;stroke-width:0.383551"
           id="rect37-8-1-1-5-3-7-4-4"
           width="13.232668"
           height="27.046396"
           x="1269.796"
           y="-686.86017"
           rx="4.8663564"
           ry="4.8663564" /><rect
           style="fill:#00aa00;stroke-width:0.250721"
           id="rect37-9-3-7-3-9-6-9-8-5"
           width="5.5275683"
           height="27.666965"
           x="1273.5065"
           y="-690.90204"
           rx="1.6221187"
           ry="1.8117074" /><path
           d="m 1249.2129,-850.24106 c 1.3261,3.53038 5.7491,28.74601 10.7379,35.16014 4.7429,6.09807 9.4857,11.38277 9.4857,11.38277 0,0 -6.4648,3.35793 -4.7031,7.42332 1.7617,4.06536 4.9249,7.60198 12.3781,13.56454 7.4532,5.96254 11.0092,2.17834 11.161,13.56764 0.073,5.44209 17.888,20.86909 20.5983,20.19153 2.7102,-0.67756 6.098,-2.43909 2.9812,-9.48572 -3.1168,-7.04666 -13.3705,-36.14248 -24.7536,-46.03491 -11.3829,-9.8924 -11.254,-21.15169 -11.254,-21.15169 0,0 5.1871,-1.77269 11.1497,12.99818 5.9625,14.77085 11.1473,15.46965 16.7033,22.10975 5.556,6.64013 10.3132,7.73023 7.874,14.77689 -2.4393,7.04663 8.2002,10.00314 15.5179,16.23673 7.3177,6.23357 22.164,28.57396 22.164,28.57396 0,0 -7.0375,-0.0457 -9.0614,4.32016 -4.4606,9.62214 17.2993,16.74883 46.0406,31.51591 46.4138,23.84709 38.0763,0.27588 57.9473,14.5066 15.5162,11.112 12.3918,-0.34372 14.8389,-4.26847 2.5159,-4.03502 11.9003,-1.38293 13.8901,-3.6587 9.1479,-10.46272 -18.76,-15.1427 1.2873,-13.34802 17.9777,1.6094 18.9462,-22.64234 21.7919,-29.28244 2.6837,-6.26189 3.7946,-11.24932 3.9125,-11.79722 2e-4,-3.5e-4 0.013,-0.0466 0.013,-0.0466 -8.669,1.60536 -17.2909,3.04187 -28.6284,4.02241 -10.326,0.89308 -11.6866,2.4853 -12.1346,11.38795 -0.4677,9.29494 -25.5554,17.2273 -35.635,8.57209 -8.7697,-11.27175 -16.0938,-24.69478 -17.5158,-39.1387 -2.1666,-9.76465 8.7004,-23.97051 2.6944,-28.4944 -2.9364,-2.21177 -8.1371,-3.4234 -12.8684,-5.41982 -4.232,-1.78568 -8.0881,-4.1994 -9.6123,-8.51833 -2.7258,-7.72325 -14.3409,-23.84057 -21.0091,-16.18456 -8.0367,9.22732 -12.5757,3.89436 -21.1031,-10.53837 -4.6907,-8.40607 -20.6968,-15.59946 -26.587,-5.91695 -0.865,1.42197 -24.9646,-0.4827 -37.2458,-14.50972 l -31.1981,-2.82979 c 0,0 0.084,0.18919 0.1417,0.31376 z"
           style="fill:url(#linearGradient4);stroke:#ffffff;stroke-width:0"
           id="path75-6-0-1" /><g
           id="g34-6-8-9-6-6-0-42"
           style="fill:#000000"
           transform="matrix(2.7393091,0,0,2.7393091,1082.5315,-900.24307)"><path
             id="path33-1-8-1-9-4-5-4"
             style="fill:#ffffff;stroke-width:0.283482"
             d="m 125.86011,10.677773 a 9.1997676,9.1997676 0 0 0 -9.19978,9.199782 9.1997676,9.1997676 0 0 0 6.31555,8.735897 c -0.0154,0.107116 -0.0234,0.216731 -0.0234,0.328247 v 4.227406 A 26.062027,11.278944 0 0 0 99.798058,44.377607 26.062027,11.278944 0 0 0 125.86011,55.656475 26.062027,11.278944 0 0 0 151.92198,44.377607 26.062027,11.278944 0 0 0 129.11447,33.187026 v -4.245327 c 0,-0.151726 -0.0148,-0.299909 -0.043,-0.443134 a 9.1997676,9.1997676 0 0 0 5.98843,-8.62101 9.1997676,9.1997676 0 0 0 -9.19978,-9.199782 z m -2.90762,23.026525 v 1.178294 a 16.091571,6.9639994 0 0 0 -13.18384,6.849043 16.091571,6.9639994 0 0 0 16.09146,6.964118 16.091571,6.9639994 0 0 0 16.09146,-6.964118 16.091571,6.9639994 0 0 0 -12.8371,-6.819803 v -1.188669 a 23.529579,9.6893129 0 0 1 20.27548,9.596131 23.529579,9.6893129 0 0 1 -23.52984,9.689322 23.529579,9.6893129 0 0 1 -23.52927,-9.689322 23.529579,9.6893129 0 0 1 20.62165,-9.614996 z m 0,1.376562 v 1.152072 a 10.033565,3.533834 0 0 0 -7.12617,3.381887 10.033565,3.533834 0 0 0 10.0336,3.534314 10.033565,3.533834 0 0 0 10.03399,-3.534314 10.033565,3.533834 0 0 0 -6.77944,-3.34246 v -1.158674 a 13.709738,5.6455721 0 0 1 10.45524,5.483988 13.709738,5.6455721 0 0 1 -13.7096,5.645848 13.709738,5.6455721 0 0 1 -13.70959,-5.645848 13.709738,5.6455721 0 0 1 10.80197,-5.516813 z m 0,1.456172 v 0.467092 c 0,1.255429 1.0106,2.266036 2.26603,2.266036 h 1.62973 c 1.25543,0 2.26622,-1.010607 2.26622,-2.266036 v -0.414082 a 7.4186263,2.486182 0 0 1 4.16402,2.23472 7.4186263,2.486182 0 0 1 -7.41857,2.486188 7.4186263,2.486182 0 0 1 -7.41875,-2.486188 7.4186263,2.486182 0 0 1 4.51132,-2.28773 z" /></g><g
           id="g37-1-9-4-2-5-8-0"
           transform="matrix(1.0346,0,0,1.0346,1298.9459,-880.656)"><path
             id="path36-8-0-1-6-6-7-6"
             style="fill:#ff0000;stroke-width:0.264583"
             d="m 124.06287,15.523598 a 18.174004,18.174004 0 0 0 -18.17416,18.174161 18.174004,18.174004 0 0 0 15.05039,17.903442 v 26.990522 c 0,1.2375 0.89193,2.233684 1.99993,2.233684 h 2.81508 c 1.108,0 1.99993,-0.996184 1.99993,-2.233684 V 51.492813 A 18.174004,18.174004 0 0 0 142.23703,33.697759 18.174004,18.174004 0 0 0 124.06287,15.523598 Z" /></g></g></g></g></svg>
